<?xml version="1.0" encoding="utf-8"?>
<!-- Generator: Adobe Illustrator 23.0.5, SVG Export Plug-In . SVG Version: 6.00 Build 0)  -->
<svg style="fill: currentColor;" version="1.1" id="Layer_1" xmlns="http://www.w3.org/2000/svg" xmlns:xlink="http://www.w3.org/1999/xlink" x="0px" y="0px"
	 viewBox="0 0 2000 2000" style="enable-background:new 0 0 2000 2000;" xml:space="preserve">
<g>
	<g>
		<g>
			<path d="M1341,996.26l-41.27-60.39l-31.67,65.94l23.43-1.78c-0.21,13.51-0.93,27.02-2.79,40.42c-2.23,14.96-5.2,29.84-9.52,44.37
				c-4.39,14.49-9.56,28.78-15.98,42.53c-6.48,13.71-13.76,27.07-22.1,39.77c-8.43,12.64-17.67,24.75-27.73,36.17
				c-10.2,11.29-21.16,21.9-32.78,31.75c-11.73,9.73-24.16,18.59-37.11,26.64c-13,7.98-26.66,14.85-40.66,20.94
				c-56.17,23.97-119.73,30.73-180.06,19.24c-15.04-3-29.97-6.75-44.47-11.87c-14.46-5.17-28.67-11.14-42.28-18.33
				c-13.57-7.25-26.72-15.31-39.19-24.37c-12.39-9.16-24.17-19.15-35.26-29.88c-10.92-10.9-21.12-22.52-30.52-34.78
				c-9.3-12.34-17.62-25.4-25.14-38.91c-7.45-13.56-13.71-27.75-19.17-42.23c-5.41-14.52-9.46-29.51-12.75-44.65
				c-12.66-60.73-7-125.36,16.48-183.12c5.96-14.39,12.74-28.47,20.68-41.91c8.01-13.39,16.86-26.28,26.64-38.48
				c9.9-12.09,20.59-23.52,32.02-34.21c11.56-10.55,23.85-20.27,36.73-29.18c12.95-8.82,26.6-16.58,40.66-23.52
				c14.1-6.88,28.79-12.49,43.73-17.3c14.98-4.74,30.36-8.09,45.86-10.67c15.54-2.42,31.26-3.53,46.99-3.86
				c-15.74,0.07-31.49,0.91-47.11,3.07c-15.58,2.32-31.08,5.42-46.21,9.94c-15.09,4.58-29.97,9.97-44.29,16.66
				c-14.28,6.75-28.18,14.34-41.41,23.03c-13.16,8.77-25.76,18.4-37.64,28.88c-11.75,10.62-22.79,22.02-33.04,34.13
				c-10.13,12.21-19.34,25.16-27.72,38.64c-8.31,13.54-15.46,27.76-21.78,42.34c-24.94,58.53-31.95,124.63-19.97,187.41
				c3.12,15.66,7.04,31.2,12.37,46.29c5.38,15.06,11.61,29.84,19.09,44.01c7.54,14.12,15.95,27.8,25.38,40.77
				c9.53,12.89,19.93,25.14,31.1,36.67c11.34,11.37,23.43,21.97,36.19,31.74c12.84,9.67,26.43,18.33,40.49,26.14
				c14.11,7.75,28.88,14.26,43.95,19.94c15.11,5.62,30.71,9.84,46.47,13.25c63.18,13.14,130.35,7.24,190.47-17.21
				c14.97-6.2,29.61-13.26,43.59-21.52c13.92-8.33,27.33-17.54,40.01-27.71c12.57-10.29,24.45-21.42,35.56-33.31
				c10.96-12.02,21.08-24.8,30.33-38.2c9.17-13.47,17.24-27.66,24.45-42.29c7.15-14.67,12.99-29.95,17.98-45.49
				c4.93-15.58,8.41-31.58,11.08-47.7c2.37-15.21,3.49-30.57,3.9-45.95L1341,996.26z"/>
		</g>
	</g>
	<g>
		<polygon points="1105.47,976.9 1105.47,788.43 1062.45,788.43 1062.45,976.9 1062.45,976.9 1062.45,1224.47 1105.47,1198.1 
			1105.47,976.9 		"/>
		<rect x="979.69" y="848.14" width="43.01" height="392.31"/>
		<polygon points="945.99,907.12 945.99,1240.45 919.84,1240.45 902.99,1230.72 902.99,907.12 		"/>
		<polygon points="869.27,969.13 869.27,1211.25 826.27,1186.44 826.27,969.13 		"/>
		<g>
			<path d="M1112.75,803.43v30.83l75.33,43.49v243.38l-82.61,47.71l-43.02,24.84l-39.75,22.94l-41.28,23.84l-4.12,2.38l-31.31-18.07
				l-43-24.84l-33.71-19.48l-43-24.81l-59.76-34.51V877.75l210.78-121.7l77.88,44.97v-19.86h18.97l-96.84-55.9L739.84,862.32v274.2
				l86.44,49.91l43,24.81l33.71,19.48l16.86,9.73l57.46,33.18l85.15-49.16l43.02-24.83l109.28-63.11v-274.2L1112.75,803.43z"/>
		</g>
	</g>
</g>
</svg>
